<svg width="233" height="57" viewBox="0 0 233 57" fill="none" xmlns="http://www.w3.org/2000/svg">
<rect width="56.1764" height="56.1764" rx="10.2762" fill="url(#paint0_linear_18_686)"/>
<path d="M13.7017 27.4031H19.3506C19.6565 27.4031 19.9253 27.2004 20.0093 26.9063L23.3075 15.3625C23.4977 14.6969 24.4426 14.7012 24.6267 15.3685L31.5536 40.4785C31.7374 41.1449 32.6803 41.1506 32.8722 40.4865L36.5088 27.8981C36.5935 27.6049 36.8618 27.4031 37.167 27.4031H42.475" stroke="white" stroke-width="2.74031" stroke-linecap="round"/>
<path d="M68.5072 40.0882V37.1484L70.887 36.6662V20.8781L68.5072 20.3959V17.4405H70.887H78.3844L84.2175 32.8086H84.3108L89.9883 17.4405H99.8033V20.3959L97.4079 20.8781V36.6662L99.8033 37.1484V40.0882H90.0661V37.1484L92.5548 36.6662V32.9797L92.6482 22.558L92.5548 22.5425L85.9596 39.9327H82.1176L75.3979 22.7136L75.289 22.7291L75.6157 32.3886V36.6662L78.26 37.1484V40.0882H68.5072ZM97.9766 40.0882V37.1484L99.5943 36.9151L106.578 17.4405H111.82L118.789 36.9151L120.391 37.1484V40.0882H112.334V37.1484L113.858 36.8684L113.002 34.0685H105.365L104.541 36.8684L106.065 37.1484V40.0882H97.9766ZM106.485 30.4909H111.883L109.456 23.1491L109.223 22.418H109.129L108.88 23.2113L106.485 30.4909ZM120.695 40.0882V37.1484L123.091 36.6662V20.8781L120.695 20.3959V17.4405H123.091H131.584C133.357 17.4405 134.886 17.7516 136.172 18.3738C137.468 18.9856 138.464 19.8463 139.159 20.9559C139.854 22.0551 140.201 23.3409 140.201 24.8134C140.201 26.2756 139.854 27.5563 139.159 28.6555C138.464 29.7547 137.468 30.6102 136.172 31.222C134.886 31.8338 133.357 32.1397 131.584 32.1397H128.068V36.6662L130.448 37.1484V40.0882H120.695ZM128.068 28.3133H131.584C132.786 28.3133 133.694 27.9866 134.306 27.3333C134.917 26.68 135.223 25.8504 135.223 24.8446C135.223 23.7972 134.917 22.9365 134.306 22.2625C133.694 21.5884 132.786 21.2514 131.584 21.2514H128.068V28.3133ZM136.508 40.0882V37.1484L138.125 36.9151L145.109 17.4405H150.351L157.32 36.9151L158.922 37.1484V40.0882H150.865V37.1484L152.389 36.8684L151.534 34.0685H143.896L143.072 36.8684L144.596 37.1484V40.0882H136.508ZM145.016 30.4909H150.414L147.987 23.1491L147.754 22.418H147.66L147.411 23.2113L145.016 30.4909ZM159.164 40.0882V37.1484L161.544 36.6662V20.8781L159.164 20.3959V17.4405H161.544H169.041L174.874 32.8086H174.968L180.645 17.4405H190.46V20.3959L188.065 20.8781V36.6662L190.46 37.1484V40.0882H180.723V37.1484L183.212 36.6662V32.9797L183.305 22.558L183.212 22.5425L176.616 39.9327H172.774L166.055 22.7136L165.946 22.7291L166.273 32.3886V36.6662L168.917 37.1484V40.0882H159.164ZM190.811 40.0882V37.1484L193.207 36.6662V20.8781L190.811 20.3959V17.4405H208.637V23.7557H204.857L204.686 21.267H198.184V26.4623H205.635V30.3043H198.184V36.2618H205.013L205.184 33.6797H208.932V40.0882H190.811ZM210.201 40.0882V37.1484L212.612 36.604V20.9559L210.201 20.3959V17.4405H212.612H220.467C222.5 17.4405 224.294 17.9175 225.849 18.8715C227.405 19.8152 228.623 21.127 229.505 22.8069C230.386 24.4764 230.827 26.4 230.827 28.5777V28.9666C230.827 31.1339 230.391 33.0575 229.52 34.7374C228.649 36.4069 227.436 37.7187 225.88 38.6727C224.325 39.6164 222.531 40.0882 220.498 40.0882H210.201ZM217.59 36.3084H220.234C221.447 36.3084 222.463 35.9973 223.283 35.3751C224.112 34.7529 224.74 33.8922 225.165 32.793C225.6 31.6835 225.818 30.408 225.818 28.9666V28.5621C225.818 27.1104 225.6 25.8349 225.165 24.7357C224.74 23.6365 224.112 22.781 223.283 22.1691C222.463 21.5469 221.447 21.2359 220.234 21.2359H217.59V36.3084Z" fill="#2C69F7"/>
<defs>
<linearGradient id="paint0_linear_18_686" x1="-2.74032" y1="-4.79555" x2="48.9831" y2="56.1764" gradientUnits="userSpaceOnUse">
<stop stop-color="#2E6CF5"/>
<stop offset="1" stop-color="#603BED"/>
</linearGradient>
</defs>
</svg>
